<svg role="img" viewBox="0 0 64 64" xmlns="http://www.w3.org/2000/svg"><title>Ruff</title><path d="M139.696 499.167v36.266c0 5.008-4.061 9.067-9.071 9.067H58.056c-5.01 0-9.072-4.059-9.072-9.067V462.9c0-5.007 4.062-9.067 9.072-9.067h25.399c5.01 0 9.071-4.059 9.071-9.066V394.9c0-5.007 4.061-9.067 9.071-9.067h25.399c5.01 0 9.072-4.059 9.072-9.066V326.9c0-5.007-4.062-9.067-9.072-9.067H9.071c-5.01 0-9.071-4.059-9.071-9.066v-27.2c0-5.008 4.061-9.067 9.071-9.067h22.678c5.01 0 9.071-4.059 9.071-9.067v-49.866c0-5.008 4.062-9.067 9.071-9.067h25.4c5.01 0 9.071-4.059 9.071-9.067v-49.866c0-5.008 4.061-9.067 9.071-9.067h25.399c5.01 0 9.072-4.059 9.072-9.067V54.9c0-5.007 4.061-9.067 9.071-9.067h25.399c5.01 0 9.071-4.059 9.071-9.066v-27.2c0-5.008 4.062-9.067 9.071-9.067h255.808c5.009 0 9.071 4.059 9.071 9.067V82.1c0 5.007-4.062 9.067-9.071 9.067h-25.4c-5.01 0-9.071 4.059-9.071 9.066v27.2c0 5.008-4.061 9.067-9.071 9.067h-25.399c-5.01 0-9.072 4.059-9.072 9.067v27.2c0 5.007 4.062 9.066 9.072 9.066h26.306c5.01 0 9.071 4.06 9.071 9.067v72.533c0 5.008-4.061 9.067-9.071 9.067H368.29c-5.01 0-9.071 4.059-9.071 9.067v27.2c0 5.007-4.062 9.066-9.072 9.066h-25.399c-5.01 0-9.071 4.06-9.071 9.067v27.2c0 5.007-4.061 9.067-9.071 9.067h-25.4c-5.009 0-9.071 4.059-9.071 9.066v27.2c0 5.008-4.061 9.067-9.071 9.067h-25.399c-5.01 0-9.071 4.059-9.071 9.067v27.2c0 5.007-4.062 9.066-9.072 9.066h-25.399c-5.01 0-9.071 4.06-9.071 9.067v27.2c0 5.007-4.061 9.067-9.071 9.067h-36.285Zm0 0V462.9c0-5.007 4.061-9.067 9.071-9.067h25.4c5.009 0 9.071-4.059 9.071-9.066v-27.2c0-5.008 4.061-9.067 9.071-9.067h25.399c5.01 0 9.071-4.059 9.071-9.067v-27.2c0-5.007 4.062-9.066 9.072-9.066h25.399c5.01 0 9.071-4.06 9.071-9.067v-27.2c0-5.007 4.061-9.067 9.071-9.067h25.399c5.01 0 9.072-4.059 9.072-9.066v-27.2c0-5.008 4.061-9.067 9.071-9.067h25.399c5.01 0 9.071-4.059 9.071-9.067v-27.2c0-5.007-4.061-9.066-9.071-9.066h-69.848c-5.01 0-9.071-4.06-9.071-9.067v-27.2c0-5.007 4.061-9.067 9.071-9.067h25.399c5.01 0 9.072-4.059 9.072-9.066v-27.2c0-5.008 4.061-9.067 9.071-9.067h25.399c5.01 0 9.071-4.059 9.071-9.067v-27.2c0-5.007 4.061-9.066 9.071-9.066h25.4c5.01 0 9.071-4.06 9.071-9.067V54.9c0-5.007-4.061-9.067-9.071-9.067H182.331c-5.01 0-9.072 4.06-9.072 9.067v72.533c0 5.008-4.061 9.067-9.071 9.067h-25.399c-5.01 0-9.071 4.059-9.071 9.067v49.866c0 5.008-4.062 9.067-9.071 9.067h-25.4c-5.009 0-9.071 4.059-9.071 9.067v49.866c0 5.008 4.062 9.067 9.071 9.067h77.105c5.01 0 9.071 4.059 9.071 9.067v95.2c0 5.007-4.061 9.066-9.071 9.066h-25.399c-5.01 0-9.071 4.06-9.071 9.067v49.867c0 5.007-4.061 9.066-9.071 9.066h-25.4c-5.009 0-9.071 4.06-9.071 9.067v27.2c0 5.007 4.062 9.067 9.071 9.067h36.285Z" style="fill:#d7ff64" transform="matrix(.11765 0 0 .11765 5.8 -.059)"/></svg>