<svg role="img" viewBox="0 0 64 64" xmlns="http://www.w3.org/2000/svg"><title>uv</title><path d="M100 20v60c0 11.038-8.962 20-20 20H20C8.962 100 0 91.038 0 80V20C0 8.962 8.962 0 20 0h60c11.038 0 20 8.962 20 20Z" style="fill:#261230" transform="scale(.64)"/><path d="m30 30.169 18.4-.078.077 15.941L48.4 56h3.277v-9.981L51.6 30.078 70 30l.168 40L67 69.999V66h-1.832c0 2.203-1.78 4.028-3.983 4.038l-1.017.004-10 .042-16 .068a4 4 0 0 1-4.016-3.983l-.068-16-.084-20Z" style="fill:#de5fe9" transform="scale(.64)"/></svg>